# xmcd
#
# Track frame offsets:
#	150
#	13631
#	22921
#	35945
#	48964
#	60888
#	76491
#	89228
#	102488
#	117174
#	130397
#	144454
#	158421
#	170510
#	185046
#	197334
#	210618
#	226210
#	240778
#	253879
#
# Disc length: 3532 seconds
#
# Revision: 1
# Processed by: cddbd v1.5.2PL0 Copyright (c) Steve Scherf et al.
# Submitted via: audiograbber 1.83.01
#
DISCID=090dca14
DTITLE=Foley, Red - The Essential Recordings - CD1
DYEAR=2016
DGENRE=Country
TTITLE0=Smoke On The Water
TTITLE1=Shame, Shame On You (with Lawrence Welk And His Orchestra)
TTITLE2=There's A Blue Star Shining Bright (In A Window Tonight)
TTITLE3=Hang Your Head In Shame
TTITLE4=I'll Never Let You Worry My Mind
TTITLE5=At Mail Call Today (with Lawrence Welk And His Orchestra)
TTITLE6=Harriet
TTITLE7=Have I Told You Lately That I Love You?
TTITLE8=Old Shep
TTITLE9=That's How Much I Love You
TTITLE10=New Jolie Blonde (New Pretty Blonde)
TTITLE11=Freight Train Boogie
TTITLE12=Tennessee Saturday Night
TTITLE13=Never Trust A Woman
TTITLE14=Tennessee Border
TTITLE15=Candy Kisses
TTITLE16=Tennessee Polka
TTITLE17=Sunday Down In Tennessee
TTITLE18=Just A Closer Walk With Thee (with The Jordanaires)
TTITLE19=Sugarfoot Rag
EXTD=
EXTT0=
EXTT1=
EXTT2=
EXTT3=
EXTT4=
EXTT5=
EXTT6=
EXTT7=
EXTT8=
EXTT9=
EXTT10=
EXTT11=
EXTT12=
EXTT13=
EXTT14=
EXTT15=
EXTT16=
EXTT17=
EXTT18=
EXTT19=
PLAYORDER=
